<?xml version="1.0" encoding="UTF-8" standalone="no"?>
<!-- Created with Inkscape (http://www.inkscape.org/) -->

<svg
   width="512"
   height="512"
   viewBox="0 0 135.46667 135.46667"
   version="1.1"
   id="svg1"
   xml:space="preserve"
   inkscape:version="1.3.2 (091e20e, 2023-11-25, custom)"
   sodipodi:docname="favicon.svg"
   xmlns:inkscape="http://www.inkscape.org/namespaces/inkscape"
   xmlns:sodipodi="http://sodipodi.sourceforge.net/DTD/sodipodi-0.dtd"
   xmlns="http://www.w3.org/2000/svg"
   xmlns:svg="http://www.w3.org/2000/svg"><sodipodi:namedview
     id="namedview1"
     pagecolor="#505050"
     bordercolor="#eeeeee"
     borderopacity="1"
     inkscape:showpageshadow="0"
     inkscape:pageopacity="0"
     inkscape:pagecheckerboard="0"
     inkscape:deskcolor="#505050"
     inkscape:document-units="mm"
     inkscape:zoom="1.0128998"
     inkscape:cx="432.91546"
     inkscape:cy="224.60266"
     inkscape:window-width="2560"
     inkscape:window-height="1351"
     inkscape:window-x="-9"
     inkscape:window-y="-9"
     inkscape:window-maximized="1"
     inkscape:current-layer="g6" /><defs
     id="defs1" /><g
     inkscape:label="Layer 1"
     inkscape:groupmode="layer"
     id="layer1"><g
       id="g6"
       transform="matrix(0.31538493,0,0,0.31538493,-82.201516,22.967087)"><path
         style="fill:#000000;stroke:#3cb371;stroke-width:29.5275979;stroke-linecap:round;stroke-linejoin:round;stroke-dasharray:none;paint-order:stroke markers fill"
         id="path3"
         sodipodi:type="arc"
         sodipodi:cx="475.4028"
         sodipodi:cy="141.9418"
         sodipodi:rx="200"
         sodipodi:ry="200"
         sodipodi:start="0"
         sodipodi:end="6.2620803"
         sodipodi:open="true"
         sodipodi:arc-type="arc"
         d="M 675.4028,141.9418 A 200,200 0 0 1 476.45805,341.93902 200,200 0 0 1 275.41394,144.05226 200,200 0 0 1 472.23718,-58.033143 200,200 0 0 1 675.35826,137.72111" /><path
         id="path2"
         style="fill:#3cb371;stroke-width:0.263435;stroke-linecap:round;stroke-linejoin:round;paint-order:stroke markers fill"
         d="m 484.23764,-16.368132 c -3.7827,0.04221 -6.43996,1.657373 -7.9071,4.808044 -1.0853,2.3306722 -1.12544,5.6190008 -0.0961,7.7453617 0.92562,1.9121492 3.15646,3.83025287 5.18493,4.45556631 3.05327,0.94122359 5.78292,0.48658679 8.21533,-1.36871336 6.60507,-5.03793945 2.91452,-15.73302765 -5.39703,-15.64025865 z m -74.82605,9.1796874 c -3.62237,0 -5.81114,1.2823113 -7.73163,4.5303345 -0.78223,1.3229262 -0.92773,1.9775699 -0.92773,4.182434 0,2.1457888 0.15603,2.888515 0.87128,4.1503906 1.02593,1.8100027 2.86599,3.3780968 4.75006,4.0496826 0.74227,0.2645931 2.23245,0.4895339 3.31268,0.4974369 7.8223,0.06093 11.515,-10.4033618 5.46722,-15.4922488 -1.62174,-1.3646022 -3.27909,-1.9180298 -5.74188,-1.9180298 z m 134.05151,6.0714721 c -1.51239,2.503e-4 -3.02464,0.26352606 -4.00695,0.78887942 -1.82804,0.97763014 -3.48289,2.73473508 -4.20685,4.46624748 -0.67408,1.612256 -0.75816,5.0858791 -0.16022,6.6192626 1.02496,2.628452 3.64186,4.85299 6.31409,5.368042 2.09153,0.403134 3.98117,0.132192 6.1203,-0.87738 6.21811,-2.934642 6.18731,-12.2471933 -0.0519,-15.57769796 -0.98353,-0.52503726 -2.49606,-0.78760374 -4.00849,-0.78735354 z m -95.90606,1.69219972 c -1.86331,0.1629881 -3.71789,0.95756618 -5.27191,2.51159668 -4.33463,4.3346361 -3.26413,11.3566741 2.16369,14.1921991 5.86681,3.064844 12.68921,-1.079187 12.68921,-7.7072138 0,-4.9612143 -3.64379,-8.412013 -7.72552,-8.95385737 -0.61227,-0.0812793 -1.23437,-0.097054 -1.85547,-0.0427246 z M 482.3425,7.0998854 c -2.3621,0 -2.62977,0.8914707 -5.5893,18.6447146 -6.01851,36.10303 -9.37583,72.667658 -9.66491,105.2475 -0.0443,4.98356 -0.15185,9.20308 -0.23957,9.375 -0.28725,0.56286 -15.07725,-73.839744 -15.30303,-76.983646 -0.14812,-2.062228 0.99338,-6.784915 2.86254,-11.849975 1.43248,-3.881674 8.75493,-19.003867 9.89228,-20.428467 0.40076,-0.501985 1.24059,-1.014965 1.86462,-1.139831 2.78925,-0.557849 5.16731,-3.481855 5.15137,-6.333924 -0.0105,-1.795355 -1.01682,-3.961593 -2.37274,-5.102539 -5.21291,-4.386347 -12.67893,1.113414 -10.26764,7.563782 l 0.65002,1.742554 -3.37524,6.622314 c -1.8566,3.641843 -4.2925,8.721446 -5.41382,11.288452 l -2.03858,4.667664 -0.45013,-4.493714 c -0.36378,-3.63427 -0.36666,-5.758584 -0.0153,-11.114502 0.61007,-9.297561 0.60099,-9.533852 -0.36926,-10.319519 -1.06822,-0.864933 -3.22345,-0.870183 -4.00238,-0.0092 -0.76816,0.84881 -1.24676,5.015708 -1.54877,13.465881 l -0.23651,6.622315 -2.57568,-6.622315 c -1.41649,-3.64183 -3.30937,-8.271427 -4.20533,-10.287475 l -1.62811,-3.665161 0.6424,-1.387024 c 0.99852,-2.158816 0.73114,-5.600534 -0.5661,-7.301331 -1.14183,-1.497016 -3.30848,-2.609253 -5.08423,-2.609253 -3.51212,0 -6.63713,3.284531 -6.61316,6.953431 0.0158,2.418522 2.76901,5.695782 5.16205,6.144714 1.36054,0.255242 1.38172,0.294986 5.28106,10.061645 2.332,5.840899 10.06852,27.625274 11.01532,31.016541 0.50212,1.798543 1.44646,6.502098 8.3252,41.471853 2.22454,11.30886 4.89766,24.86139 5.94177,30.1178 1.04412,5.2564 1.8609,9.59239 1.81427,9.6344 -0.0832,0.075 -1.59849,-3.05943 -9.69849,-20.06225 -16.45729,-34.545774 -27.60225,-68.512282 -32.70568,-99.671935 -0.54938,-3.354319 -1.1083,-7.117456 -1.24207,-8.363342 -0.33135,-3.08613 -1.25625,-5.136576 -2.45209,-5.436707 -1.20325,-0.302 -3.21711,0.640404 -3.61175,1.689148 -0.34497,0.916777 -0.33863,0.96222 1.20392,10.598755 5.7577,35.969247 17.74894,71.573215 38.15765,113.294981 2.83627,5.79819 5.09449,10.54229 5.01862,10.54229 -0.20008,0 -15.72296,-20.82532 -20.26215,-27.18353 -5.17106,-7.24333 -12.5469,-21.03908 -18.91174,-35.372919 -3.10994,-7.003671 -7.80093,-19.316757 -10.65369,-27.964782 -1.54714,-4.690063 -2.83404,-8.028984 -3.20435,-8.309937 -0.34048,-0.258335 -1.19637,-0.474065 -1.90124,-0.480651 -0.97721,-0.0079 -1.45272,0.206202 -2.00348,0.906372 -0.39726,0.505029 -0.72327,1.199474 -0.72327,1.542663 0,2.243313 7.91918,24.477093 12.34284,34.654236 l 0.90942,2.09198 -0.98419,-1.129151 c -0.54139,-0.620532 -4.3137,-5.664542 -8.38165,-11.210632 -4.71152,-6.423458 -7.80458,-10.325874 -8.52051,-10.748291 -0.84396,-0.497942 -2.40615,-2.78798 -6.27594,-9.194946 -4.75214,-7.867734 -5.12658,-8.60801 -4.78973,-9.494019 0.90626,-2.383629 -0.33769,-5.969747 -2.60163,-7.50122 -1.46894,-0.993687 -4.10071,-1.331656 -5.85632,-0.752258 -4.49174,1.482408 -5.86784,7.239105 -2.57263,10.763549 1.0981,1.174481 1.88782,1.540973 4.25262,1.96991 l 2.09046,0.378418 4.95453,8.178711 c 3.82098,6.30715 4.95773,8.457191 4.96826,9.397888 0.0163,1.534213 0.2203,1.862101 6.53076,10.48584 12.29862,16.807045 21.1414,28.840699 30.06897,40.917959 5.24242,7.092 11.48748,15.56017 13.87787,18.81867 3.66011,4.98932 9.71158,13.16044 13.27972,17.9306 1.15901,1.54946 1.13091,1.53169 -7.29065,-4.80957 -13.1796,-9.924 -19.98825,-15.85911 -30.49316,-26.57623 -7.41207,-7.56179 -12.31574,-13.22132 -18.12287,-20.91828 -4.74817,-6.29338 -11.70718,-16.808792 -14.84527,-22.431936 -5.71709,-10.244279 -11.53366,-23.357597 -14.9704,-33.752441 -0.82811,-2.504666 -1.79267,-4.770852 -2.18964,-5.140686 -0.85717,-0.7986 -2.00451,-0.843945 -3.37982,-0.132752 -1.76294,0.911666 -1.71271,1.825439 0.44708,8.183289 5.27737,15.53493 13.09388,31.414926 22.38465,45.47882 12.3476,18.691206 25.00665,32.763576 44.37408,49.324026 3.46125,2.95959 6.24043,5.43407 6.17523,5.49927 -0.27715,0.27714 -9.03937,-5.32146 -15.07873,-9.6344 -13.68736,-9.77463 -23.61463,-18.05668 -34.7229,-28.97186 -10.29084,-10.11196 -21.05866,-22.626321 -27.56043,-32.029719 -1.44614,-2.091561 -2.87704,-3.896886 -3.17993,-4.013061 -1.82704,-0.701105 -3.72395,0.223961 -4.17938,2.038574 -0.27878,1.110743 0.64496,2.710479 4.68597,8.110046 10.0295,13.4013 24.09014,28.71553 35.94056,39.14337 2.01258,1.77099 3.81681,3.37239 4.00848,3.55835 0.54272,0.52655 -1.45853,-0.52629 -10.1059,-5.31311 -10.5109,-5.81844 -21.2155,-11.7034 -24.95422,-13.72071 -3.85534,-2.08024 -5.40125,-2.17474 -7.14264,-0.43335 -1.45044,1.45043 -1.71695,3.64668 -0.64545,5.32074 0.58554,0.9148 9.27794,5.73764 70.55359,39.14948 27.60492,15.05214 44.97934,24.67459 45.53528,25.2182 0.30614,0.29933 0.15481,1.24206 -0.62714,3.88031 -7.95672,26.84542 -18.78145,55.67603 -32.15942,85.65979 l -2.58026,-3.29438 c -0.019,0.0471 -0.35429,-0.41513 -0.74463,-1.02691 -2.22772,-3.49131 -7.27467,-9.47353 -12.65869,-15.00549 -3.20215,-3.29015 -4.38356,-4.94168 -5.63507,-7.87659 -2.45252,-5.75132 -5.73824,-18.4895 -6.3736,-24.71161 l -0.087,-0.84686 2.81219,-6.84815 c 3.49974,-8.52308 4.75585,-12.5746 5.71747,-18.43872 0.47786,-2.91401 0.33495,-3.52186 -0.95215,-4.04053 -0.57361,-0.23115 -0.80616,-0.22233 -1.45416,0.0534 -0.91592,0.38979 -0.95186,0.4834 -1.6098,4.245 -0.45401,2.59562 -1.10909,5.2573 -2.03095,8.25041 -0.7014,2.27736 -3.02566,8.11646 -3.31268,8.32215 -0.12361,0.0886 -0.45175,-2.71362 -0.8667,-7.4112 -0.89636,-10.14773 -1.49675,-14.93388 -2.57721,-20.5307 -0.50525,-2.61583 -0.86321,-3.17756 -2.06451,-3.23486 -0.4508,-0.0215 -0.93031,0.11207 -1.3031,0.36316 -0.93772,0.63163 -0.97991,1.20259 -0.34028,4.61426 0.85407,4.55538 1.46813,9.82407 2.4582,21.09222 0.49532,5.63723 0.95461,10.59282 1.02081,11.01379 l 0.12054,0.76599 -1.71814,-2.02331 c -5.27127,-6.20462 -7.84228,-10.09252 -10.41259,-15.75012 -1.05606,-2.3245 -1.12245,-2.42455 -1.78528,-2.69165 -0.59598,-0.24015 -0.79165,-0.22813 -1.45722,0.09 -1.58655,0.75841 -1.50055,1.88969 0.45014,5.89295 2.3083,4.73711 4.80868,8.42485 9.78546,14.43176 5.24744,6.3336 6.15961,7.70449 6.73523,10.11658 1.2998,5.44678 1.96654,8.0433 2.83813,11.05804 0.53869,1.86333 0.9229,3.38788 0.8545,3.38745 -0.22903,-0.001 -14.09374,-12.86289 -18.47077,-17.13409 -2.48778,-2.42763 -6.63305,-6.65021 -8.06427,-8.21533 -1.40683,-1.53843 -1.57038,-1.79364 -2.2522,-3.52631 -1.15135,-2.92591 -2.6017,-8.61226 -3.40576,-13.35297 -0.56725,-3.34456 -0.57585,-3.21265 0.33417,-5.33752 0.44338,-1.03526 1.51496,-3.13432 2.38037,-4.66461 3.23848,-5.72653 3.71933,-6.6689 4.97894,-9.75495 1.1922,-2.92067 2.083,-5.71131 2.38648,-7.47375 0.15492,-0.8998 -0.0667,-1.57207 -0.69428,-2.10266 -0.376,-0.31836 -0.57411,-0.37592 -1.14441,-0.33112 -0.37911,0.0298 -0.90497,0.18826 -1.16882,0.35248 -0.46247,0.2879 -0.49788,0.3683 -0.99945,2.22778 -0.3302,1.22433 -1.08886,3.32344 -2.07672,5.74646 -1.37249,3.36626 -1.78103,4.20658 -3.45001,7.11365 -1.04094,1.81312 -1.93998,3.31728 -1.99738,3.34168 -0.0575,0.0245 -0.54378,-5.54994 -1.08185,-12.38709 -1.01732,-12.9269 -1.61947,-17.97793 -2.21862,-18.60809 -0.18398,-0.19344 -0.40276,-0.34811 -0.6363,-0.46082 -0.70063,-0.33798 -1.54196,-0.30174 -2.02941,0.16175 -0.76867,0.73086 -0.81579,1.30586 -0.38758,4.71954 0.46345,3.69437 1.39911,14.46685 1.25122,14.40735 -0.20399,-0.0822 -3.56424,-4.46115 -4.98504,-6.49719 -2.16903,-3.10833 -4.29398,-6.83328 -5.82886,-10.21424 -0.77262,-1.70188 -1.23713,-2.1406 -2.17133,-2.0523 -1.10769,0.10489 -1.96678,1.0257 -1.87378,2.00958 0.0665,0.70358 1.44418,3.76415 2.84119,6.31103 2.05799,3.75199 4.40873,7.20345 8.14819,11.969 2.32793,2.96668 3.86528,5.10774 4.21448,5.86548 0.1206,0.26172 0.27565,1.16698 0.34485,2.01263 0.44061,5.38398 1.4491,12.34282 2.57263,17.76123 0.40634,1.95966 0.70934,3.57757 0.67444,3.59497 -0.32494,0.16257 -7.76364,-9.30573 -11.50818,-14.64844 -10.04944,-14.33847 -16.19903,-26.51761 -20.77179,-41.13769 -0.7102,-2.27064 -0.998,-2.75802 -1.82953,-3.09448 -0.4756,-0.19226 -0.75475,-0.17764 -1.3443,0.0732 -0.62803,0.26721 -0.78908,0.42766 -1.02996,1.02539 -0.24711,0.6132 -0.23423,0.89591 0.0961,2.09808 2.7346,9.95134 8.3412,22.50444 14.79797,33.13294 0.69579,1.14531 1.2794,2.16621 1.297,2.26898 0.0194,0.1126 -0.1917,0.0596 -0.53253,-0.13275 -0.31077,-0.17549 -1.16832,-0.64786 -1.9043,-1.04981 -2.1063,-1.15014 -6.22951,-3.73609 -8.47168,-5.31311 -4.79389,-3.37177 -7.94647,-6.0862 -11.2793,-9.70917 -1.0286,-1.11812 -1.99424,-2.08296 -2.14538,-2.14386 -0.43335,-0.17463 -1.29296,-0.0367 -1.74714,0.27924 -0.5966,0.41493 -1.00604,1.53354 -0.80871,2.211 0.28058,0.96323 3.77837,4.66432 7.09381,7.50427 4.86236,4.16503 10.11099,7.64758 18.41278,12.21619 6.78459,3.73367 5.929,3.00637 10.23254,8.6914 5.12024,6.7639 10.84287,13.5489 16.07972,19.06586 0.96116,1.01258 1.69784,1.87853 1.63574,1.92413 -0.062,0.0456 -0.99316,-0.2216 -2.06909,-0.59356 -1.07591,-0.37199 -4.41656,-1.459 -7.4234,-2.41547 -3.00686,-0.95647 -6.99423,-2.30402 -8.86078,-2.9953 l -3.39508,-1.25732 -1.36719,-2.23084 c -3.57634,-5.82886 -7.88393,-11.3664 -11.82251,-15.19928 -1.30297,-1.26806 -1.52392,-1.42544 -2.04163,-1.45874 -1.3111,-0.0844 -2.31019,0.9748 -2.08892,2.21405 0.0885,0.4958 0.39437,0.9387 1.29394,1.87683 1.88004,1.96062 4.71253,5.16856 5.88226,6.66046 1.46252,1.86534 4.12757,5.71987 4.06647,5.88227 -0.10872,0.28989 -11.95145,-5.01169 -17.27142,-7.73163 -1.63511,-0.83597 -3.15937,-1.55585 -3.38745,-1.60065 -0.53682,-0.10558 -1.66087,0.37339 -1.86768,0.79651 -0.5133,1.05046 -0.40029,2.00052 0.3067,2.58179 0.24229,0.19921 1.52005,0.92451 2.83966,1.61134 8.81175,4.58618 17.37904,8.19666 28.99781,12.21923 1.86422,0.64542 1.89871,0.66423 1.40838,0.78278 -0.27634,0.0668 -2.55442,0.65521 -5.06286,1.3092 -8.75106,2.28151 -12.31803,2.80046 -19.54041,2.83966 -0.85734,0.005 -1.18264,0.0996 -1.61438,0.46998 -1.088,0.93334 -0.88373,2.67682 0.37232,3.18298 0.90412,0.36424 3.12716,0.39311 6.97326,0.09 5.30737,-0.41824 7.15723,-0.79968 20.97168,-4.32282 3.478,-0.88693 5.65513,-1.21237 6.7276,-1.00708 1.23677,0.23674 4.25889,1.19798 9.05762,2.88238 5.4615,1.91706 5.70089,2.05794 9.15527,5.35583 3.44998,3.29369 9.94147,9.30967 14.91852,13.82599 3.52022,3.19435 8.8668,8.28312 8.74786,8.32672 -0.0255,0.009 -0.90129,-0.19256 -1.94549,-0.44861 -3.73231,-0.91517 -8.00642,-1.30858 -13.29346,-1.22528 -4.31435,0.0679 -4.88068,0.0311 -5.56793,-0.36163 -0.3244,-0.18538 -1.98725,-1.46885 -3.69568,-2.85187 -4.85649,-3.93146 -7.31792,-5.53228 -11.81793,-7.68432 -3.00824,-1.43863 -7.48679,-2.99527 -8.37555,-2.91137 -1.68229,0.15889 -2.42375,2.14643 -1.23749,3.31726 0.37204,0.36718 0.72792,0.52052 2.1225,0.91247 2.15612,0.60597 7.65603,2.98766 9.69696,4.19922 1.81386,1.07677 4.75937,3.17618 6.76422,4.82178 l 1.43127,1.17492 -3.55072,0.2594 c -10.18162,0.74681 -16.66304,0.69608 -22.89886,-0.18006 -1.35707,-0.19058 -2.6704,-0.33078 -2.91901,-0.31128 -0.63929,0.0501 -1.36062,0.63902 -1.64489,1.34278 -0.19391,0.47999 -0.17633,0.75604 0.087,1.37481 0.31256,0.73445 0.3738,0.78691 1.17798,1.01776 1.2917,0.37088 5.3466,0.88475 8.40912,1.0666 5.25376,0.31196 10.88349,0.14405 21.73614,-0.65002 3.58679,-0.26247 6.53968,-0.43532 6.56128,-0.38453 0.0217,0.0508 -0.26269,0.24516 -0.63019,0.43182 -0.36748,0.18664 -1.94415,1.10121 -3.50494,2.03247 -4.89911,2.92304 -8.56831,4.8779 -11.40747,6.08063 -3.17871,1.34656 -5.30904,2.00022 -8.23822,2.52533 -1.15133,0.20641 -2.37311,0.51107 -2.71454,0.67749 -1.29086,0.62911 -1.43033,2.5203 -0.24261,3.27911 0.63494,0.40565 1.43385,0.37062 4.18243,-0.18615 4.17805,-0.84634 8.90751,-2.60164 13.36517,-4.95758 l 1.95923,-1.03455 -0.36316,1.24054 c -0.52364,1.79092 -1.86364,4.60264 -3.32489,6.97632 -1.39115,2.25983 -1.48403,2.58077 -1.02844,3.54767 0.53045,1.12584 2.25334,1.29996 3.16772,0.32043 0.39244,-0.42042 1.74078,-2.64689 2.85035,-4.70581 0.48611,-0.90192 1.35227,-2.99171 2.38647,-5.75714 1.88804,-5.04867 1.59359,-4.63195 4.51965,-6.37207 4.49153,-2.67109 7.59796,-3.9381 9.58252,-3.9093 1.62735,0.0236 4.68771,0.53124 6.91376,1.14746 2.12554,0.5884 6.99072,2.70584 8.46405,3.68347 1.83068,1.21476 6.36405,6.75752 9.31091,11.38458 1.31404,2.06546 2.45523,3.58234 3.46375,4.74243 -4.2741,9.37572 -8.94527,19.1288 -13.90228,29.06952 2.66355,1.05095 5.3493,2.04288 8.05511,2.97699 4.3566,-8.80405 8.4988,-17.53864 12.48474,-26.14441 0.70062,-0.31049 1.43963,-0.65405 2.24304,-1.05438 4.91116,-2.44422 11.65395,-4.85499 13.84888,-4.95148 1.76647,-0.0777 7.02621,0.61935 9.1507,1.21155 2.22495,0.6202 5.10764,1.76262 6.51397,2.58179 1.71509,0.99891 3.72474,3.68816 6.19507,8.29315 1.60933,2.99999 1.57085,2.4905 0.58441,7.78961 -0.5403,2.90262 -0.87596,5.13962 -0.92468,6.16303 -0.11134,2.33621 -0.10415,4.9382 0.0153,5.50079 0.27817,1.3108 1.8442,2.05051 2.87933,1.35956 0.88901,-0.59339 0.97385,-0.91699 0.94757,-3.57056 -0.0276,-2.78728 0.27565,-5.88603 0.75074,-7.69043 l 0.32806,-1.25122 1.14441,1.8982 c 2.60387,4.31754 5.75143,8.26043 8.89435,11.14044 2.06762,1.89463 2.73496,2.33632 3.48816,2.31628 1.40892,-0.0375 2.26305,-1.72951 1.48163,-2.93426 -0.20668,-0.31868 -1.09612,-1.20993 -1.97602,-1.98059 -2.23867,-1.96065 -3.72685,-3.62016 -5.75561,-6.41327 -1.81205,-2.49476 -3.94647,-6.06208 -6.63605,-11.09314 -0.85684,-1.60284 -1.73608,-3.19976 -1.95465,-3.5492 -0.21857,-0.34945 -0.36064,-0.66189 -0.31586,-0.69427 0.0447,-0.0324 2.48393,1.63916 5.42145,3.71399 8.88819,6.2778 13.62572,9.32509 18.28766,11.76757 2.71753,1.42377 6.45659,3.07407 7.75452,3.42255 0.80801,0.21699 0.88691,0.20403 1.5335,-0.26398 0.54473,-0.39432 0.70135,-0.62248 0.78278,-1.13372 0.11944,-0.74954 -0.19377,-1.62476 -0.71564,-1.99738 -0.20293,-0.14495 -1.40173,-0.70236 -2.66266,-1.23901 -5.79428,-2.46565 -11.37209,-5.765 -19.70977,-11.65619 l -2.90833,-2.05384 1.83106,-0.26855 c 2.56634,-0.37578 6.17312,-0.65543 8.28247,-0.64239 2.3734,0.0147 8.31388,0.81088 10.47363,1.4038 1.39693,0.3835 1.78069,0.43551 2.28882,0.31281 1.62018,-0.39123 2.01087,-2.4752 0.65155,-3.479 -0.71814,-0.53027 -5.35842,-1.50592 -8.67768,-1.82496 -4.96523,-0.47727 -7.89849,-0.3766 -14.08691,0.48676 -2.17697,0.30371 -4.26362,0.5456 -4.63715,0.53711 -0.79136,-0.018 -1.2964,-0.27851 -4.95758,-2.56195 -4.48656,-2.79827 -8.35129,-4.66499 -12.02087,-5.80597 -1.02664,-0.31923 -1.88115,-0.59832 -1.89819,-0.61951 -0.0794,-0.0987 7.12705,-1.7004 11.79046,-2.62146 6.59336,-1.30222 15.25671,-3.10953 19.9112,-4.15191 4.6604,-1.0437 4.9386,-1.04023 10.60638,0.13427 4.97996,1.03197 8.06515,1.76678 9.24683,2.20185 1.02471,0.37724 2.7222,1.77978 5.24444,4.33349 10.01805,10.14347 11.40516,11.42302 15.73639,14.51874 3.13874,2.24337 5.05866,3.36746 6.02112,3.52173 1.33716,0.21419 2.41148,-1.17522 1.96075,-2.53601 -0.17886,-0.53998 -0.40924,-0.78977 -1.14135,-1.23596 -6.16738,-3.75869 -8.95506,-6.04099 -15.27558,-12.50916 -1.81174,-1.85408 -3.45981,-3.53561 -3.66211,-3.73535 -0.35893,-0.35446 -0.32021,-0.35209 1.60981,0.0565 12.02883,2.54639 21.23156,3.87186 31.14624,4.48761 1.48477,0.0922 2.95353,0.12961 3.26385,0.0839 0.9055,-0.13334 1.49098,-0.88761 1.59302,-2.05231 0.0411,-0.46917 -0.6743,-1.45999 -1.18866,-1.64642 -0.21861,-0.079 -1.89572,-0.24822 -3.72772,-0.37537 -5.96063,-0.41366 -18.83995,-1.9798 -18.78357,-2.28424 0.0314,-0.17064 4.30196,-2.09966 6.51703,-2.94342 1.77162,-0.67484 5.85282,-1.96026 8.47473,-2.67029 1.25455,-0.33975 1.74514,-0.56237 2.07672,-0.94146 0.82873,-0.94758 0.51829,-2.37155 -0.6485,-2.97547 -0.46072,-0.23846 -0.73059,-0.21601 -2.50092,0.19837 -5.35116,1.25232 -11.89692,3.77374 -17.96722,6.92291 l -2.32391,1.20544 -3.5553,-0.67291 c -1.95566,-0.37048 -6.06759,-1.27206 -9.13696,-2.00348 -3.06936,-0.73142 -6.49136,-1.52311 -7.60498,-1.75934 -1.11362,-0.23626 -2.04867,-0.48896 -2.07825,-0.55999 -0.0297,-0.0711 1.04687,-0.43237 2.39258,-0.80414 7.33203,-2.02551 15.73312,-4.88748 23.6084,-8.04139 6.61913,-2.65088 5.51246,-2.46885 13.25073,-2.16828 9.46872,0.3678 15.76097,0.0915 22.07489,-0.96893 4.30518,-0.72304 9.21154,-2.08896 9.94873,-2.76947 0.51847,-0.47862 0.7442,-1.64851 0.44708,-2.31171 -0.22618,-0.50487 -0.89212,-1.06594 -1.35345,-1.13983 -0.1609,-0.0258 -1.4855,0.30349 -2.94342,0.7309 -4.72395,1.38491 -8.82522,2.08326 -14.67133,2.49939 -2.7343,0.19463 -7.59983,0.2826 -9.99756,0.18158 -0.83785,-0.0352 -1.81609,-0.0724 -2.17285,-0.0824 -0.39123,-0.011 -0.59963,-0.0753 -0.5249,-0.16174 0.0681,-0.0789 1.09588,-0.65176 2.28271,-1.27411 11.01357,-5.77549 22.2914,-13.63835 29.76685,-20.75348 0.90307,-0.85953 1.05967,-1.09433 1.16424,-1.74713 0.10193,-0.63633 0.0462,-0.85708 -0.354,-1.40992 -0.37568,-0.519 -0.60726,-0.67623 -1.11389,-0.75683 -0.88593,-0.14062 -1.3851,0.12845 -3.16468,1.70746 -11.45823,10.16691 -23.00866,17.42911 -39.01367,24.53003 -5.96366,2.64589 -17.22032,6.92155 -17.41485,6.61468 -0.0209,-0.0329 1.0734,-1.26201 2.43225,-2.73132 3.75722,-4.06261 8.21036,-9.50473 11.36474,-13.89008 0.49545,-0.6888 1.09684,-1.38522 1.33515,-1.54724 0.68999,-0.46907 3.11152,-1.50939 6.63605,-2.85034 5.66163,-2.15406 9.45477,-3.90018 13.15307,-6.05316 2.51047,-1.46144 5.27018,-3.37286 5.69,-3.94135 0.58714,-0.79496 0.32574,-2.02589 -0.56915,-2.68707 -0.75481,-0.55748 -1.3793,-0.42174 -2.919,0.63782 -3.05878,2.10491 -6.80161,4.20066 -10.26307,5.74493 -2.26737,1.01152 -7.4046,3.03008 -7.62176,2.9953 -0.15739,-0.0253 6.20121,-8.77289 8.50372,-11.69891 2.12753,-2.70373 2.38425,-3.22088 2.10266,-4.24347 -0.17856,-0.64851 -0.88101,-1.11227 -1.65558,-1.18408 -0.25821,-0.0239 -0.52538,-0.003 -0.78277,0.0671 -0.83832,0.23085 -3.95861,4.24787 -11.4975,14.79797 -3.9874,5.58004 -7.27994,10.10314 -7.31659,10.05249 -0.0366,-0.0505 -0.0311,-1.80228 0.0122,-3.89252 0.0695,-3.35137 0.15374,-4.28169 0.71411,-7.87353 0.40341,-2.58539 0.8355,-4.77443 1.18408,-5.99365 0.52937,-1.85176 0.54068,-1.93944 0.29297,-2.42463 -0.14135,-0.27678 -0.50995,-0.68381 -0.8194,-0.90484 -0.46548,-0.33252 -0.66419,-0.38551 -1.15051,-0.3067 -0.81135,0.13087 -1.35016,0.5927 -1.68152,1.44348 -0.64903,1.66645 -1.32468,4.51684 -1.80969,7.63397 -0.51256,3.29356 -0.58538,4.34891 -0.76447,10.92529 -0.0479,1.75739 -0.21363,4.10747 -0.36773,5.22309 -0.31631,2.28978 -0.25481,2.17268 -2.46582,4.74548 -3.13399,3.64678 -7.30979,7.77037 -9.8053,9.68323 -1.47779,1.13276 -1.74881,1.26764 -3.74756,1.86004 -2.03341,0.60271 -7.76311,2.08266 -11.14654,2.87934 -5.95289,1.4017 -24.46596,5.26999 -24.66278,5.1529 -0.0588,-0.0349 1.05699,-1.14272 2.47955,-2.46124 2.30164,-2.13327 4.21158,-4.01486 8.13446,-8.01087 1.73724,-1.7696 3.22707,-2.4729 10.98938,-5.19256 7.36193,-2.5794 11.40556,-4.45027 15.82641,-7.31812 3.73597,-2.42358 4.39367,-3.34762 3.4256,-4.81568 -0.40612,-0.61585 -0.56793,-0.72844 -1.20239,-0.83008 -0.70563,-0.11304 -0.81534,-0.0598 -2.91901,1.38702 -5.12008,3.52132 -9.32785,5.52538 -17.04406,8.12227 l -2.51465,0.84686 0.49743,-0.59357 c 0.27384,-0.32652 3.22329,-4.33553 6.55518,-8.90961 6.66001,-9.14308 9.90399,-13.34078 12.98523,-16.80298 2.30764,-2.59296 2.56653,-3.10273 2.08893,-4.12751 -0.18986,-0.40738 -0.53196,-0.7701 -0.92926,-0.98419 -1.05874,-0.5705 -1.65425,-0.27451 -3.43628,1.70594 -3.81234,4.23766 -6.79721,8.02979 -12.79907,16.26129 -2.77838,3.81051 -4.5037,6.04174 -4.56391,5.9021 -0.13981,-0.32426 0.88048,-6.52508 1.45417,-8.83789 0.75398,-3.03975 1.56638,-5.65825 2.51617,-8.11615 1.37645,-3.56199 1.39389,-3.66143 0.81024,-4.46778 -0.41294,-0.57046 -0.60852,-0.69717 -1.21918,-0.79498 -1.3702,-0.21949 -1.8056,0.22638 -2.89917,2.96936 -2.20073,5.5199 -3.21507,9.63841 -4.61273,18.74542 l -1.12304,7.31812 -0.50965,0.68054 c -3.75352,5.00294 -13.13928,14.22248 -18.20679,17.88483 -2.58594,1.86892 -4.44944,2.67499 -8.88977,3.84216 -7.35336,1.93288 -14.61681,4.402 -18.37921,6.23627 5.75581,-12.63982 10.98596,-24.79691 15.23133,-35.74372 6.12295,-15.78824 14.23674,-39.31734 17.54608,-50.88195 l 1.54571,-5.40162 2.73438,-0.25482 c 1.50438,-0.14004 13.40039,-0.48825 26.43432,-0.77514 78.84758,-1.73551 102.48299,-2.38082 103.58429,-2.82746 1.24819,-0.50619 2.53033,-2.32099 2.53296,-3.58276 0.003,-1.32275 -0.97252,-2.99711 -2.14996,-3.69263 -1.02141,-0.60337 -1.72765,-0.63012 -10.53772,-0.41504 -5.19302,0.12671 -20.88928,0.45745 -34.88159,0.73548 -13.99232,0.27804 -28.18559,0.605 -31.53992,0.72631 -3.35433,0.12131 -6.01486,0.13499 -5.91278,0.0305 0.10209,-0.10446 5.00529,-0.97865 10.8963,-1.94397 33.56402,-5.49995 58.03083,-11.86976 83.36182,-21.70105 6.67291,-2.58983 7.84149,-3.36376 7.84149,-5.19256 0,-1.26605 -1.36623,-2.75269 -2.52991,-2.75269 -0.45066,0 -2.22237,0.5672 -3.93677,1.26038 -11.42904,4.62113 -23.72871,8.80806 -34.65576,11.79809 -18.88778,5.16843 -35.09424,8.59006 -54.36706,11.47614 -10.69711,1.60188 -21.92714,3.06541 -22.37549,2.91595 -0.19547,-0.0652 1.19212,-0.55197 3.08227,-1.08032 9.0817,-2.53855 27.31695,-8.73887 40.90119,-13.90839 18.34797,-6.98234 37.91716,-16.73081 52.92511,-24.3103 2.69543,-1.36129 0.47272,-6.78807 -2.58942,-5.02014 -9.26176,5.34729 -20.35099,10.35089 -25.84381,12.89063 -8.31627,3.84521 -24.50664,10.40581 -33.78296,13.84887 -8.98598,3.33532 -21.70427,7.69332 -21.89483,7.50275 -0.0693,-0.0693 16.08312,-8.24886 35.89477,-18.17627 27.76204,-13.91126 36.25413,-18.31449 37.03308,-19.20166 0.55588,-0.6331 1.70266,-1.39354 2.54822,-1.69067 1.40454,-0.49357 7.55857,-2.9796 14.18915,-5.58625 a 7.8011026,7.8011026 0 0 0 -2.68097,5.96009 7.8011026,7.8011026 0 0 0 7.84149,7.71942 7.8011026,7.8011026 0 0 0 7.76062,-7.80182 l -0.002,-0.1648 a 7.8011026,7.8011026 0 0 0 -7.92236,-7.63549 7.8011026,7.8011026 0 0 0 -0.14496,0.0122 c 4.80792,-1.9049 10.77751,-4.1959 11.1557,-4.39148 2.0723,-1.07161 2.22119,-3.67648 0.28229,-4.9469 -1.19223,-0.78116 -1.89831,-0.61095 -8.03223,1.94703 -2.87511,1.19899 -9.69686,3.9025 -15.1596,6.00738 -7.91061,3.04809 -10.42888,3.87247 -12.37183,4.05121 -2.16008,0.19872 -3.01916,0.53091 -7.49359,2.89917 -6.78338,3.59034 -13.58799,6.75604 -12.71973,5.91736 0.38336,-0.3703 2.65778,-2.37858 5.05371,-4.46167 6.5508,-5.69547 18.38836,-17.55133 18.66303,-18.69202 0.12697,-0.52711 0.13307,-1.3477 0.0137,-1.82342 -0.26048,-1.037849 -2.0634,-2.057474 -3.15399,-1.783752 -0.4295,0.107744 -3.90172,3.299602 -7.71637,7.093802 -9.396,9.34568 -16.25586,15.27495 -28.89099,24.97101 -12.25689,9.40582 -11.88526,9.1852 -33.69751,20.10193 -11.07248,5.54162 -20.21578,10.07538 -20.31708,10.07538 -0.10129,0 4.16874,-3.26931 9.48944,-7.26471 24.36333,-18.29472 35.38329,-27.6394 50.99793,-43.24646 11.55031,-11.544733 18.5141,-19.354952 27.20794,-30.516047 3.46314,-4.445936 10.34176,-14.280182 10.77729,-15.408325 0.3768,-0.975944 -0.228,-2.786237 -1.08338,-3.244018 -0.35059,-0.187631 -1.20009,-0.340271 -1.88751,-0.340271 -1.09362,0 -1.39103,0.20239 -2.37579,1.620483 -12.34063,17.770866 -21.67004,28.941177 -36.63941,43.865958 -15.92159,15.8742 -31.52978,29.02871 -52.30713,44.08112 -5.3669,3.88811 -10.30785,7.47643 -10.97869,7.97577 l -1.21918,0.9079 1.03302,-1.39313 c 1.89989,-2.56309 13.48349,-17.32265 20.92285,-26.66016 32.64809,-40.97831 31.46172,-39.607316 42.35077,-48.979179 8.7329,-7.51613 18.87015,-15.83277 20.0943,-16.48407 0.41866,-0.222761 1.64006,-0.404358 2.71301,-0.404358 2.45934,0 3.90416,-0.601299 5.31616,-2.209473 1.96598,-2.239135 2.24888,-5.278172 0.72632,-7.803344 -1.38754,-2.301229 -4.40396,-3.554572 -6.92291,-2.876282 -2.97486,0.80105 -5.54504,4.404692 -5.09949,7.150269 0.19261,1.186927 0.10598,1.313796 -2.13165,3.126525 -10.88394,8.817047 -13.49857,10.896556 -13.59406,10.804749 -0.0605,-0.05809 0.69615,-1.886108 1.68152,-4.06189 4.91326,-10.849057 6.27953,-14.245228 6.06995,-15.080261 -0.27791,-1.107267 -1.16608,-1.886947 -2.44293,-2.142334 -1.71244,-0.342478 -2.64267,0.75226 -4.67682,5.502319 -3.10676,7.254684 -5.8831,12.529972 -7.47834,14.210511 -0.81875,0.862536 -4.34185,5.136446 -7.82928,9.49707 -3.48746,4.36061 -6.40254,7.928466 -6.47736,7.928466 -0.0748,0 0.62835,-2.233833 1.5625,-4.965209 2.60181,-7.607503 4.76633,-14.763655 6.28052,-20.767212 0.75601,-2.997458 1.51518,-5.49677 1.68762,-5.554199 1.46717,-0.489053 3.51357,-1.879475 4.39301,-2.984619 0.96941,-1.218212 1.06659,-1.570732 1.06659,-3.889466 0,-2.317573 -0.096,-2.66705 -1.05438,-3.851318 -1.63218,-2.016628 -3.08062,-2.660184 -5.65186,-2.513123 -1.49554,0.08548 -2.47392,0.345946 -3.13568,0.836182 -2.46878,1.828943 -3.39785,4.89334 -2.33765,7.710266 0.34191,0.908465 0.615,2.357067 0.60578,3.219605 -0.0357,3.499865 -6.23612,23.936081 -11.12061,36.653136 -3.52558,9.179089 -4.87052,12.085309 -6.65741,14.387509 -0.89908,1.15835 -6.74242,8.53534 -12.98523,16.39404 -6.2428,7.85868 -13.21188,16.68147 -15.48767,19.60449 -2.27576,2.92306 -4.20017,5.31464 -4.27551,5.31464 -0.0754,0 0.6571,-1.45118 1.62659,-3.22418 6.52918,-11.9407 15.97711,-31.09158 22.82409,-46.26312 6.35737,-14.086589 15.05105,-36.695459 20.03479,-52.101134 2.56065,-7.915379 6.63605,-22.083951 6.63605,-23.071289 0,-2.16581 -3.29723,-3.380235 -4.776,-1.759339 -0.45706,0.500973 -1.55865,3.741274 -3.05329,8.973694 -5.73277,20.069473 -14.59859,44.318573 -23.89068,65.344238 -4.77828,10.81197 -14.78125,31.06967 -21.87958,44.31304 -3.20079,5.97174 -5.85813,10.8222 -5.90515,10.77729 -0.047,-0.0449 1.33575,-6.02946 3.07159,-13.29804 1.73586,-7.26858 5.33116,-22.51173 7.99103,-33.87451 4.54213,-19.403647 4.94102,-20.878753 6.56128,-24.270624 3.52517,-7.379631 9.95654,-17.757358 19.02619,-30.696106 2.5228,-3.599048 2.79573,-3.867948 4.45251,-4.408264 2.32979,-0.759796 3.39019,-1.594712 4.39148,-3.459168 0.66584,-1.239798 0.79373,-1.890313 0.65308,-3.330993 -0.22281,-2.28242 -0.94926,-3.673388 -2.5589,-4.901123 -1.14195,-0.871018 -1.56413,-0.976563 -3.91999,-0.976563 -2.27326,0 -2.80361,0.121333 -3.80859,0.871277 -2.31554,1.727995 -3.16536,4.545798 -2.30103,7.626343 l 0.58594,2.087402 -1.9165,2.723694 c -1.05336,1.497714 -3.97205,5.769496 -6.48651,9.492493 -2.51447,3.722994 -4.57154,6.671931 -4.57154,6.553649 0,-0.11828 0.55884,-2.45949 1.24207,-5.201721 0.7889,-3.166372 1.3503,-6.448308 1.53809,-8.99353 0.16263,-2.204272 0.78004,-6.345448 1.37176,-9.202576 0.59171,-2.857114 1.07575,-5.227368 1.07575,-5.268859 0,-0.04149 0.60771,-0.172634 1.3504,-0.291443 0.74268,-0.118809 2.10135,-0.727407 3.01971,-1.351929 3.69041,-2.509643 4.88576,-7.474049 2.74658,-11.404419 -1.60275,-2.944811 -4.24137,-4.542541 -7.50122,-4.542541 -2.50656,0 -4.25806,0.601512 -5.93872,2.0401 -3.90864,3.345639 -4.09796,9.214538 -0.41961,12.99591 l 1.23443,1.268006 -1.28784,6.048584 c -1.29449,6.081389 -1.49759,6.715967 -2.66571,8.31604 -0.60627,0.83045 -2.25234,7.377215 -9.89685,39.379882 -1.67117,6.99615 -4.90617,20.405259 -7.18994,29.797359 -2.28379,9.39209 -5.12521,21.21989 -6.31409,26.28326 l -2.16217,9.20563 -0.28076,-4.67529 c -0.33101,-5.50878 -0.0579,-29.4308 0.44098,-38.65509 1.5294,-28.278071 4.04854,-50.369072 9.61304,-84.286496 1.23757,-7.543526 2.25067,-13.9421789 2.25067,-14.2181392 0,-0.9655914 -1.64722,-2.2125244 -2.92206,-2.2125244 z M 355.97073,21.977205 c -2.49962,-0.04017 -4.30197,0.599048 -5.9967,2.130126 -2.15132,1.943605 -2.87469,3.620813 -2.88391,6.690979 -0.007,2.244722 0.1309,2.848685 0.97046,4.277039 1.02887,1.750321 2.80732,3.143956 5.01709,3.93219 2.94547,1.05068 6.48772,0.283533 8.72955,-1.89209 1.98262,-1.92407 2.68396,-3.613125 2.69318,-6.491089 0.007,-2.038097 -0.14802,-2.706525 -0.943,-4.058838 -1.75165,-2.979729 -4.32566,-4.536027 -7.58667,-4.588317 z m 39.16169,7.810974 c -0.62646,-0.05506 -1.25075,-0.03938 -1.86463,0.0412 -4.09254,0.537196 -7.67517,3.987988 -7.67517,9.007263 0,3.158404 2.58118,6.654131 5.79529,7.850647 1.71835,0.639685 5.48435,0.454347 7.03278,-0.346374 5.40554,-2.795312 6.46407,-9.868248 2.10113,-14.042664 -1.61951,-1.549535 -3.51005,-2.344904 -5.3894,-2.51007 z m 174.00817,0.05035 c -2.5443,-0.197128 -5.2151,0.691025 -7.25097,2.949523 -1.54906,1.718461 -2.19244,3.507109 -2.16675,6.025696 0.035,3.440753 1.90067,6.221031 5.17425,7.713318 2.03273,0.926616 5.14128,0.849277 7.31812,-0.18158 3.33847,-1.580933 5.05371,-4.229048 5.05371,-7.801818 0,-5.034094 -3.88784,-8.376585 -8.12836,-8.705139 z m 37.43592,10.5484 c -4.51696,0.195587 -8.39692,3.737254 -8.39692,8.700562 0,3.18858 2.58031,6.858212 5.60456,7.968139 3.80722,1.397294 8.43716,-0.0025 10.43701,-3.155517 2.99229,-4.71834 1.65999,-10.217513 -3.03497,-12.522888 -1.52661,-0.749602 -3.10406,-1.055482 -4.60968,-0.990296 z M 340.81723,58.413667 c -0.49951,-0.03385 -0.99803,-0.01871 -1.49078,0.04883 -5.79472,0.794253 -9.35067,7.075937 -6.92749,12.239074 1.21443,2.587622 3.13049,4.266013 5.79529,5.076599 4.29794,1.307384 9.27641,-1.494337 10.60485,-5.967712 0.68431,-2.304311 0.68425,-2.883877 0,-5.187988 -0.9996,-3.366073 -4.48532,-5.971878 -7.98187,-6.208801 z m 286.84082,9.124755 c -0.48434,0.01067 -0.97258,0.06976 -1.45874,0.178528 -5.15049,1.15263 -7.76706,6.333195 -5.57556,11.039734 0.97513,2.094235 2.73122,3.55855 5.02472,4.187012 6.05796,1.659977 11.54992,-3.908372 9.68628,-9.820557 -0.92199,-2.924882 -3.41276,-4.993688 -6.24085,-5.477905 -0.47135,-0.08071 -0.95151,-0.117479 -1.43585,-0.106812 z m -25.30518,12.564087 c -2.06016,0.216465 -4.08059,1.176794 -5.66558,2.931214 -4.35664,4.822252 -1.8975,12.842704 4.39605,14.341735 4.06927,0.969227 7.86559,-0.684103 9.83277,-4.281616 1.29651,-2.371039 1.40517,-5.905895 0.24871,-8.128357 -1.8323,-3.521296 -5.37833,-5.22376 -8.81195,-4.862976 z m 38.02796,11.210632 c -1.15963,0.07165 -2.32001,0.37465 -3.41034,0.932312 -6.68223,3.417681 -5.98923,13.546297 1.09863,16.062927 4.24851,1.50849 8.82464,-0.39773 10.83832,-4.51355 0.78463,-1.60383 0.90838,-2.24263 0.7843,-4.080199 -0.0809,-1.19827 -0.42008,-2.744791 -0.75378,-3.43628 -1.59982,-3.314953 -5.07827,-5.180276 -8.55713,-4.96521 z m -301.90582,0.340271 c -1.90017,0.109062 -3.7656,0.903337 -5.20478,2.453614 -1.55959,1.679971 -2.18804,3.257878 -2.19726,5.519104 -0.0146,3.64315 1.95116,6.50079 5.29327,7.69348 3.15639,1.12641 6.24959,0.26101 8.74481,-2.44598 2.26418,-2.45634 2.7276,-5.378173 1.32752,-8.384707 -1.53437,-3.29492 -4.79664,-5.017252 -7.96356,-4.835511 z m 300.0122,38.842778 c -2.43782,-0.0715 -4.96067,0.86097 -6.89697,3.00903 -1.54712,1.71631 -2.19175,3.50365 -2.17133,6.02569 0.0278,3.42712 2.49567,6.76207 5.87616,7.94373 2.06512,0.72188 4.82292,0.4977 6.83594,-0.55389 3.31413,-1.73134 5.10556,-5.0084 4.73175,-8.65784 -0.48516,-4.73641 -4.31251,-7.64749 -8.37555,-7.76672 z m -7.36542,34.11865 c -0.59263,-0.0419 -1.19129,-0.0251 -1.78222,0.0504 -2.3637,0.30191 -4.60551,1.52923 -5.86853,3.57208 -1.19915,1.93958 -1.58134,4.94146 -0.89417,7.02362 0.56367,1.70792 2.60731,3.94256 4.35333,4.76075 1.04945,0.49178 2.01305,0.62869 3.89863,0.55084 2.12869,-0.088 2.72887,-0.26218 3.99932,-1.15509 0.82216,-0.57784 1.96865,-1.81679 2.54822,-2.75421 0.89905,-1.45418 1.05271,-2.04178 1.04218,-3.99781 -0.0144,-2.55119 -0.77857,-4.40227 -2.48261,-6.01959 -1.31048,-1.24377 -3.03624,-1.90519 -4.81415,-2.03094 z" /></g></g></svg>
